<svg xmlns="http://www.w3.org/2000/svg" viewBox="0 0 40 40" id="oculus"><path d="M30.28 13.81a8.17 8.17 0 0 0-3.16-1.54 9.78 9.78 0 0 0-2-.25H14.89a9.78 9.78 0 0 0-2 .25 8.17 8.17 0 0 0-3.16 1.54 7.94 7.94 0 0 0 0 12.38 8.17 8.17 0 0 0 3.16 1.54 9.78 9.78 0 0 0 2 .25H25.11a9.78 9.78 0 0 0 2-.25 8.17 8.17 0 0 0 3.16-1.54 7.94 7.94 0 0 0 0-12.38Zm-3.5 8.34a2.83 2.83 0 0 1-1.17.45 7.59 7.59 0 0 1-1.26 0h-8.7a7.59 7.59 0 0 1-1.26 0 2.83 2.83 0 0 1-1.17-.45A2.64 2.64 0 0 1 12.08 20a2.59 2.59 0 0 1 1.14-2.15 2.83 2.83 0 0 1 1.17-.45 7.59 7.59 0 0 1 1.26 0h8.7a7.59 7.59 0 0 1 1.26 0 2.83 2.83 0 0 1 1.17.45A2.64 2.64 0 0 1 27.92 20a2.59 2.59 0 0 1-1.14 2.15Z"></path></svg>